<?xml version="1.0" standalone="no"?>
<!DOCTYPE svg PUBLIC "-//W3C//DTD SVG 20010904//EN"
 "http://www.w3.org/TR/2001/REC-SVG-20010904/DTD/svg10.dtd">
<svg version="1.0" xmlns="http://www.w3.org/2000/svg"
 width="160.000000pt" height="160.000000pt" viewBox="0 0 160.000000 160.000000"
 preserveAspectRatio="xMidYMid meet">
<metadata>
Created by potrace 1.14, written by Peter Selinger 2001-2017
</metadata>
<g transform="translate(0.000000,160.000000) scale(0.100000,-0.100000)"
fill="#000000" stroke="none">
<path d="M499 1376 c-94 -38 -154 -93 -194 -176 -14 -29 -26 -38 -73 -53 -185
-60 -284 -258 -192 -387 24 -34 95 -90 114 -90 6 0 -3 8 -19 19 -45 27 -83 76
-96 123 -26 99 49 226 170 288 61 31 66 28 66 -37 1 -72 32 -140 93 -201 53
-54 201 -126 291 -142 57 -10 101 -36 101 -59 0 -5 6 -12 13 -14 6 -3 2 -6
-10 -6 -33 -1 -53 -12 -53 -27 0 -16 16 -19 25 -4 16 25 58 9 108 -43 53 -53
147 -210 147 -245 0 -29 28 -103 47 -124 19 -22 43 -24 43 -3 0 18 -30 84 -48
106 -7 10 -14 51 -17 102 -5 102 15 172 64 220 l31 31 57 -19 c32 -10 63 -22
68 -25 36 -23 118 -44 176 -44 53 0 74 5 111 27 74 43 98 119 57 186 -26 43
-56 68 -91 76 l-28 6 39 52 c57 77 71 110 71 170 0 75 -27 113 -114 157 -62
31 -75 34 -154 34 -71 0 -96 -4 -137 -24 -49 -24 -130 -97 -194 -175 -24 -29
-32 -35 -30 -20 4 35 -12 129 -27 152 -8 12 -14 29 -14 38 0 8 -22 38 -48 65
-86 89 -231 116 -353 66z m1052 -584 c36 -40 38 -86 6 -133 -33 -50 -78 -69
-167 -69 -42 0 -80 4 -85 8 -6 4 -36 16 -68 27 -83 27 -100 56 -40 68 16 3 55
22 88 43 33 20 71 43 86 50 14 7 35 24 47 37 21 22 26 23 63 13 25 -6 53 -24
70 -44z"/>
</g>
</svg>
